{"glyphs":{":":{"x_min":0,"x_max":237,"ha":237,"o":"m 29 0 l 29 180 l 208 180 l 208 0 z m 30 357 l 30 536 l 208 536 l 208 357 z"},"$":{"x_min":0,"x_max":506,"ha":506,"o":"m 29 98 l 29 244 l 218 273 l 218 158 l 287 158 l 287 249 l 29 393 l 29 624 l 122 720 l 177 720 l 177 787 l 342 787 l 342 720 l 384 720 l 477 629 l 477 509 l 288 480 l 288 566 l 219 566 l 219 498 l 476 354 l 476 95 l 382 0 l 330 0 l 330 -61 l 176 -61 l 176 0 l 126 0 z"},"?":{"x_min":0,"x_max":474,"ha":474,"o":"m 57 0 l 57 180 l 237 180 l 237 0 z m 7 506 l 7 625 l 103 720 l 358 720 l 452 626 l 452 386 l 237 291 l 237 215 l 57 215 l 57 401 l 265 490 l 265 562 l 194 562 l 194 483 z"},"a":{"x_min":0,"x_max":494,"ha":494,"o":"m 29 69 l 29 260 l 102 336 l 286 336 l 286 400 l 210 400 l 210 359 l 40 359 l 40 463 l 110 536 l 396 536 l 465 464 l 465 0 l 284 0 l 284 38 l 247 0 l 98 0 z m 287 228 l 205 228 l 205 131 l 287 131 z"},"L":{"x_min":0,"x_max":381,"ha":381,"o":"m 29 0 l 29 720 l 217 720 l 217 180 l 380 180 l 380 0 z"},"3":{"x_min":0,"x_max":503,"ha":503,"o":"m 27 93 l 27 242 l 215 272 l 215 155 l 289 155 l 289 298 l 216 298 l 216 428 l 290 428 l 290 559 l 216 559 l 216 450 l 28 480 l 28 622 l 126 720 l 380 720 l 476 623 l 476 440 l 399 361 l 476 283 l 476 91 l 383 0 l 120 0 z"},";":{"x_min":0,"x_max":240,"ha":240,"o":"m 29 0 l 29 180 l 210 180 l 210 0 l 142 -178 l 85 -178 l 85 0 z m 30 358 l 30 536 l 211 536 l 211 358 z"},"J":{"x_min":0,"x_max":505,"ha":505,"o":"m 29 95 l 29 315 l 217 337 l 217 159 l 286 159 l 286 720 l 476 720 l 476 91 l 382 0 l 122 0 z"},"V":{"x_min":0,"x_max":482,"ha":482,"o":"m -14 720 l 180 720 l 227 338 l 228 333 l 235 241 l 238 195 l 241 149 l 244 195 l 248 241 l 254 333 l 255 338 l 303 720 l 496 720 l 363 0 l 120 0 z"},"7":{"x_min":0,"x_max":503,"ha":503,"o":"m 21 554 l 21 720 l 482 720 l 482 592 l 231 0 l 34 0 l 275 554 z"},"S":{"x_min":0,"x_max":506,"ha":506,"o":"m 29 98 l 29 244 l 218 273 l 218 158 l 287 158 l 287 249 l 29 393 l 29 624 l 122 720 l 384 720 l 477 629 l 477 509 l 288 480 l 288 566 l 219 566 l 219 498 l 476 354 l 476 95 l 382 0 l 126 0 z"},"Z":{"x_min":0,"x_max":477,"ha":477,"o":"m 14 0 l 14 147 l 219 527 q 220 531 227 536 q 239 545 247 551 l 261 561 l 272 568 l 260 564 l 240 557 l 207 548 l 29 548 l 29 720 l 463 720 l 463 588 l 257 204 q 253 196 240 186 q 227 175 210 165 l 199 158 l 212 163 q 242 174 252 177 q 263 180 272 180 l 462 180 l 462 0 z"},"x":{"x_min":0,"x_max":462,"ha":462,"o":"m -14 0 l 113 272 l -1 536 l 186 536 l 219 430 l 226 392 l 230 371 l 231 358 l 233 371 l 236 392 l 243 430 l 276 536 l 463 536 l 349 272 l 476 0 l 278 0 l 244 108 l 236 156 l 233 179 l 231 196 l 230 182 l 226 156 l 218 108 l 185 0 z"},")":{"x_min":0,"x_max":245,"ha":245,"o":"m 1 -42 l 62 55 l 62 664 l 1 760 l 152 760 l 216 667 l 216 52 l 152 -42 z"},"&":{"x_min":0,"x_max":506,"ha":506,"o":"m 29 95 l 29 292 l 102 366 l 29 440 l 29 625 l 126 720 l 382 720 l 382 560 l 217 560 l 217 431 l 381 431 l 477 334 l 477 97 l 381 0 l 120 0 z m 288 300 l 217 300 l 217 156 l 288 156 z"},"_":{"x_min":0,"x_max":562,"ha":562,"o":"m -7 0 l -7 36 l 569 36 l 569 0 z"},"v":{"x_min":0,"x_max":420,"ha":420,"o":"m -7 536 l 167 536 l 194 317 l 195 303 l 202 228 l 207 167 l 210 126 l 213 167 l 218 228 l 225 303 l 226 317 l 253 536 l 427 536 l 334 0 l 86 0 z"},"O":{"x_min":0,"x_max":502,"ha":502,"o":"m 29 94 l 29 625 l 123 720 l 379 720 l 473 625 l 473 94 l 379 0 l 123 0 z m 285 561 l 216 561 l 216 160 l 285 160 z"},"(":{"x_min":0,"x_max":241,"ha":241,"o":"m 29 53 l 29 665 l 84 759 l 240 759 l 182 666 l 182 52 l 240 -40 l 84 -40 z"},"C":{"x_min":0,"x_max":503,"ha":503,"o":"m 29 97 l 29 625 l 124 720 l 376 720 l 472 625 l 472 461 l 285 436 l 285 560 l 216 560 l 216 160 l 286 160 l 286 305 l 474 331 l 474 95 l 379 0 l 125 0 z"},"W":{"x_min":0,"x_max":801,"ha":801,"o":"m 0 720 l 182 720 l 215 384 l 221 272 l 222 239 l 227 170 l 231 221 l 234 272 l 240 384 l 285 720 l 520 720 l 559 384 l 560 378 l 568 272 l 571 221 l 574 170 l 578 221 l 581 272 l 586 384 l 619 720 l 801 720 l 711 0 l 457 0 l 416 341 l 408 438 l 406 467 l 401 528 l 397 483 l 393 438 l 386 341 l 345 0 l 91 0 z"},"A":{"x_min":0,"x_max":510,"ha":510,"o":"m -7 0 l 113 720 l 397 720 l 517 0 l 315 0 l 302 118 l 208 118 l 195 0 z m 266 471 l 259 532 l 257 558 l 255 583 l 253 558 l 251 532 l 244 471 l 214 282 l 296 282 z"},"f":{"x_min":0,"x_max":307,"ha":307,"o":"m 11 395 l 11 536 l 52 536 l 52 641 l 128 720 l 314 720 l 314 587 l 233 587 l 233 536 l 314 536 l 314 395 l 232 395 l 232 0 l 52 0 l 52 395 z"},"Q":{"x_min":0,"x_max":502,"ha":502,"o":"m 29 94 l 29 625 l 123 720 l 379 720 l 473 625 l 473 94 l 379 0 l 345 0 l 345 -118 l 159 -118 l 159 0 l 123 0 z m 285 561 l 216 561 l 216 160 l 285 160 z"},"w":{"x_min":0,"x_max":726,"ha":726,"o":"m -7 536 l 174 536 l 203 289 q 206 268 208 248 q 210 227 210 204 l 210 173 l 213 204 l 216 236 l 222 283 l 223 293 l 258 536 l 468 536 l 503 293 l 504 283 l 509 236 l 513 204 l 516 173 l 516 204 l 522 289 l 552 536 l 733 536 l 640 0 l 411 0 l 374 243 l 367 306 l 364 340 l 363 359 l 362 340 l 359 306 l 352 243 l 315 0 l 85 0 z"},"-":{"x_min":0,"x_max":316,"ha":316,"o":"m 14 195 l 14 338 l 302 338 l 302 195 z"},"E":{"x_min":0,"x_max":440,"ha":440,"o":"m 29 0 l 29 720 l 418 720 l 418 547 l 217 547 l 217 453 l 401 453 l 401 280 l 217 280 l 217 180 l 416 180 l 416 0 z"},"s":{"x_min":0,"x_max":489,"ha":489,"o":"m 29 74 l 29 167 l 208 195 l 208 135 l 283 135 l 283 187 l 30 282 l 30 467 l 100 536 l 390 536 l 460 468 l 460 375 l 279 351 l 279 406 l 206 406 l 206 355 l 460 260 l 460 70 l 391 0 l 104 0 z"},"l":{"x_min":0,"x_max":237,"ha":237,"o":"m 29 0 l 29 720 l 208 720 l 208 0 z"},"8":{"x_min":0,"x_max":503,"ha":503,"o":"m 28 94 l 28 286 l 104 361 l 29 439 l 29 625 l 125 720 l 378 720 l 474 625 l 474 439 l 398 361 l 475 286 l 475 94 l 379 0 l 124 0 z m 287 302 l 216 302 l 216 158 l 287 158 z m 286 560 l 217 560 l 217 429 l 286 429 z"},"e":{"x_min":0,"x_max":497,"ha":497,"o":"m 29 73 l 29 465 l 100 536 l 398 536 l 468 465 l 468 244 l 207 209 l 207 141 l 283 141 l 283 180 l 463 180 l 463 70 l 393 0 l 106 0 z m 286 403 l 207 403 l 207 309 l 286 320 z"},"b":{"x_min":0,"x_max":489,"ha":489,"o":"m 29 0 l 29 720 l 212 720 l 212 498 l 255 536 l 390 536 l 460 466 l 460 72 l 389 0 l 254 0 l 210 40 l 210 0 z m 279 395 l 211 395 l 211 142 l 279 142 z"},"%":{"x_min":0,"x_max":787,"ha":787,"o":"m 192 0 l 516 720 l 601 720 l 275 0 z m 29 383 l 29 644 l 102 720 l 275 720 l 348 644 l 348 383 l 276 311 l 101 311 z m 442 72 l 442 329 l 518 402 l 682 402 l 758 329 l 758 72 l 683 0 l 517 0 z m 210 608 l 167 608 l 167 419 l 210 419 z m 622 294 l 578 294 l 578 109 l 622 109 z"},"m":{"x_min":0,"x_max":738,"ha":738,"o":"m 29 0 l 29 536 l 209 536 l 209 497 l 252 536 l 419 536 l 460 498 l 500 536 l 641 536 l 709 465 l 709 0 l 528 0 l 528 395 l 458 395 l 458 0 l 277 0 l 277 395 l 209 395 l 209 0 z"},",":{"x_min":0,"x_max":209,"ha":209,"o":"m 14 0 l 14 180 l 195 180 l 195 0 l 127 -178 l 70 -178 l 70 0 z"},"n":{"x_min":0,"x_max":490,"ha":490,"o":"m 29 0 l 29 536 l 211 536 l 211 499 l 254 536 l 388 536 l 461 464 l 461 0 l 280 0 l 280 394 l 210 394 l 210 0 z"},"h":{"x_min":0,"x_max":489,"ha":489,"o":"m 29 0 l 29 720 l 210 720 l 210 497 l 252 536 l 391 536 l 460 466 l 460 0 l 279 0 l 279 395 l 209 395 l 209 0 z"},"z":{"x_min":0,"x_max":397,"ha":397,"o":"m 7 0 l 7 106 l 155 373 q 158 378 161 381 q 162 382 177 396 l 189 407 l 197 413 l 186 409 l 169 403 q 156 399 153 398 q 144 395 141 395 l 24 395 l 24 536 l 390 536 l 390 430 l 245 166 q 244 163 239 158 q 229 148 222 142 l 209 130 l 201 123 l 211 128 q 231 138 242 141 q 252 144 259 144 l 388 144 l 388 0 z"},"B":{"x_min":0,"x_max":507,"ha":507,"o":"m 29 0 l 29 720 l 382 720 l 477 625 l 477 445 l 401 368 l 478 291 l 478 95 l 380 0 z m 291 288 l 217 288 l 217 160 l 291 160 z m 288 561 l 217 561 l 217 445 l 288 445 z"},"K":{"x_min":0,"x_max":529,"ha":529,"o":"m 29 0 l 29 720 l 218 720 l 218 460 l 304 720 l 512 720 l 384 412 l 543 0 l 330 0 l 217 325 l 217 0 z"},"R":{"x_min":0,"x_max":508,"ha":508,"o":"m 29 0 l 29 720 l 384 720 l 479 625 l 479 447 l 402 368 l 478 293 l 478 0 l 291 0 l 291 290 l 217 290 l 217 0 z m 291 569 l 217 569 l 217 444 l 291 444 z"},"T":{"x_min":0,"x_max":396,"ha":396,"o":"m -7 544 l -7 720 l 403 720 l 403 544 l 291 544 l 291 0 l 104 0 l 104 544 z"},"P":{"x_min":0,"x_max":499,"ha":499,"o":"m 29 0 l 29 720 l 383 720 l 477 627 l 477 322 l 379 227 l 217 227 l 217 0 z m 287 560 l 217 560 l 217 387 l 287 387 z"},"t":{"x_min":0,"x_max":315,"ha":315,"o":"m 11 395 l 11 536 l 53 536 l 53 658 l 232 658 l 232 536 l 315 536 l 315 395 l 232 395 l 232 145 l 314 145 l 314 0 l 125 0 l 52 73 l 52 395 z"},"M":{"x_min":0,"x_max":750,"ha":750,"o":"m 29 0 l 29 720 l 308 720 l 359 420 q 360 418 362 392 q 365 366 368 327 l 372 289 l 375 250 l 378 289 l 381 327 q 383 357 386 384 q 388 411 391 420 l 442 720 l 721 720 l 721 0 l 551 0 l 551 347 l 555 450 l 556 485 l 557 554 l 551 514 l 542 450 l 526 347 l 460 0 l 290 0 l 223 347 l 221 355 l 208 450 l 200 502 l 193 554 l 194 450 l 198 347 l 198 0 z"},"g":{"x_min":0,"x_max":489,"ha":489,"o":"m 29 74 l 29 464 l 101 536 l 245 536 l 282 499 l 282 536 l 460 536 l 460 -104 l 385 -178 l 107 -178 l 40 -107 l 40 -26 l 209 -26 l 209 -61 l 280 -61 l 280 37 l 242 0 l 102 0 z m 281 394 l 211 394 l 211 142 l 281 142 z"},"j":{"x_min":0,"x_max":240,"ha":240,"o":"m -40 -178 l -40 -49 l 30 -49 l 30 536 l 209 536 l 209 -101 l 136 -178 z m 31 577 l 31 720 l 211 720 l 211 577 z"},"i":{"x_min":0,"x_max":240,"ha":240,"o":"m 29 0 l 29 536 l 210 536 l 210 0 z m 30 579 l 30 720 l 211 720 l 211 579 z"},"y":{"x_min":0,"x_max":487,"ha":487,"o":"m 29 74 l 29 536 l 211 536 l 211 144 l 280 144 l 280 536 l 458 536 l 458 -106 l 385 -178 l 106 -178 l 39 -106 l 39 -26 l 206 -26 l 206 -61 l 279 -61 l 279 37 l 241 0 l 99 0 z"},".":{"x_min":0,"x_max":209,"ha":209,"o":"m 14 0 l 14 175 l 195 175 l 195 0 z"},"p":{"x_min":0,"x_max":490,"ha":490,"o":"m 29 -178 l 29 536 l 210 536 l 210 498 l 248 536 l 393 536 l 461 466 l 461 75 l 385 0 l 248 0 l 209 40 l 209 -178 z m 279 394 l 210 394 l 210 143 l 279 143 z"},"X":{"x_min":0,"x_max":513,"ha":513,"o":"m -7 0 l 139 361 l 4 720 l 207 720 l 242 572 l 251 514 l 257 460 l 262 514 l 271 572 l 306 720 l 510 720 l 375 361 l 520 0 l 308 0 l 273 147 q 270 161 266 192 q 261 223 259 242 l 257 271 l 254 242 q 247 181 240 147 l 205 0 z"},"*":{"x_min":0,"x_max":361,"ha":361,"o":"m 17 514 l 136 554 l 17 593 l 65 680 l 157 602 l 128 720 l 233 720 l 203 602 l 295 680 l 343 593 l 225 554 l 344 514 l 290 428 l 198 516 l 231 389 l 129 389 l 162 516 l 71 428 z"},"Y":{"x_min":0,"x_max":460,"ha":460,"o":"m -22 720 l 180 720 l 216 533 l 224 473 l 228 436 l 230 412 l 233 443 l 237 473 l 243 527 l 244 533 l 280 720 l 482 720 l 323 247 l 323 0 l 137 0 l 137 247 z"},"c":{"x_min":0,"x_max":489,"ha":489,"o":"m 29 72 l 29 465 l 99 536 l 391 536 l 460 467 l 460 329 l 278 307 l 278 393 l 210 393 l 210 144 l 277 144 l 277 240 l 459 262 l 459 69 l 391 0 l 102 0 z"},"!":{"x_min":0,"x_max":242,"ha":242,"o":"m 29 0 l 29 180 l 212 180 l 212 0 z m 30 214 l 30 720 l 213 720 l 213 214 z"},"/":{"x_min":0,"x_max":447,"ha":447,"o":"m 1 -31 l 349 754 l 446 754 l 97 -31 z"},"6":{"x_min":0,"x_max":503,"ha":503,"o":"m 28 96 l 28 624 l 122 720 l 380 720 l 475 624 l 475 519 l 288 490 l 288 561 l 216 561 l 216 401 l 270 457 l 379 457 l 475 364 l 475 94 l 380 0 l 122 0 z m 289 298 l 216 298 l 216 159 l 289 159 z"},"r":{"x_min":0,"x_max":334,"ha":334,"o":"m 29 0 l 29 536 l 211 536 l 211 498 l 250 536 l 334 536 l 334 397 l 210 397 l 210 0 z"},"2":{"x_min":0,"x_max":503,"ha":503,"o":"m 27 0 l 27 323 l 123 419 l 288 442 l 288 560 l 215 560 l 215 486 l 27 458 l 27 625 l 122 720 l 381 720 l 476 624 l 476 375 l 382 280 l 214 255 l 214 166 l 474 166 l 474 0 z"},"9":{"x_min":0,"x_max":502,"ha":502,"o":"m 25 93 l 25 199 l 215 228 l 215 157 l 288 157 l 288 316 l 236 262 l 124 262 l 27 355 l 27 626 l 122 720 l 383 720 l 477 623 l 477 94 l 383 0 l 122 0 z m 288 559 l 216 559 l 216 419 l 288 419 z"}," ":{"x_min":0,"x_max":290,"ha":290,"o":""},"I":{"x_min":0,"x_max":246,"ha":246,"o":"m 29 0 l 29 720 l 217 720 l 217 0 z"},"H":{"x_min":0,"x_max":500,"ha":500,"o":"m 29 0 l 29 720 l 216 720 l 216 477 l 284 477 l 284 720 l 471 720 l 471 0 l 284 0 l 284 290 l 216 290 l 216 0 z"},"4":{"x_min":0,"x_max":503,"ha":503,"o":"m 1 143 l 1 283 l 178 720 l 452 720 l 452 288 l 495 288 l 495 143 l 452 143 l 452 0 l 265 0 l 265 143 z m 266 558 l 161 288 l 266 288 z"},"D":{"x_min":0,"x_max":506,"ha":506,"o":"m 29 0 l 29 720 l 384 720 l 477 626 l 477 96 l 379 0 z m 289 562 l 218 562 l 218 161 l 289 161 z"},"0":{"x_min":0,"x_max":503,"ha":503,"o":"m 29 95 l 29 625 l 122 720 l 381 720 l 474 625 l 474 95 l 380 0 l 122 0 z m 286 560 l 217 560 l 217 158 l 286 158 z"},"F":{"x_min":0,"x_max":420,"ha":420,"o":"m 29 0 l 29 720 l 419 720 l 419 548 l 218 548 l 218 454 l 403 454 l 403 282 l 216 282 l 216 0 z"},"`":{"x_min":0,"x_max":216,"ha":216,"o":"m 0 727 l 142 727 l 180 582 l 70 582 z"},"k":{"x_min":0,"x_max":493,"ha":493,"o":"m 29 0 l 29 720 l 210 720 l 210 317 l 293 536 l 489 536 l 387 310 l 515 0 l 307 0 l 210 261 l 210 0 z"},"u":{"x_min":0,"x_max":488,"ha":488,"o":"m 29 73 l 29 536 l 210 536 l 210 143 l 279 143 l 279 536 l 459 536 l 459 0 l 278 0 l 278 37 l 238 0 l 99 0 z"},"U":{"x_min":0,"x_max":504,"ha":504,"o":"m 29 96 l 29 720 l 216 720 l 216 160 l 288 160 l 288 720 l 475 720 l 475 96 l 381 0 l 123 0 z"},"o":{"x_min":0,"x_max":491,"ha":491,"o":"m 29 74 l 29 466 l 103 536 l 388 536 l 462 466 l 462 74 l 387 0 l 104 0 z m 281 395 l 210 395 l 210 145 l 281 145 z"},"N":{"x_min":0,"x_max":583,"ha":583,"o":"m 29 0 l 29 720 l 244 720 l 364 408 l 385 333 l 391 310 l 405 264 l 401 300 l 397 336 l 388 413 l 388 720 l 554 720 l 554 0 l 343 0 l 223 311 l 201 389 l 190 429 l 179 470 l 184 434 l 189 387 l 198 306 l 198 0 z"},"G":{"x_min":0,"x_max":509,"ha":509,"o":"m 29 96 l 29 625 l 122 720 l 388 720 l 480 627 l 480 497 l 294 470 l 294 566 l 216 566 l 216 156 l 293 156 l 293 291 l 245 291 l 245 449 l 480 449 l 480 94 l 385 0 l 123 0 z"},"q":{"x_min":0,"x_max":489,"ha":489,"o":"m 29 75 l 29 463 l 101 536 l 245 536 l 280 499 l 280 536 l 460 536 l 460 -178 l 280 -178 l 280 37 l 244 0 l 102 0 z m 279 393 l 210 393 l 210 142 l 279 142 z"},"d":{"x_min":0,"x_max":488,"ha":488,"o":"m 29 71 l 29 466 l 101 536 l 236 536 l 278 495 l 278 720 l 459 720 l 459 0 l 278 0 l 278 38 l 239 0 l 98 0 z m 279 395 l 210 395 l 210 142 l 279 142 z"},"1":{"x_min":0,"x_max":502,"ha":502,"o":"m 87 575 l 87 664 l 236 720 l 379 720 l 379 0 l 193 0 l 193 575 z"},"5":{"x_min":0,"x_max":504,"ha":504,"o":"m 28 95 l 28 240 l 217 274 l 217 159 l 288 159 l 288 313 l 122 313 l 30 407 l 30 720 l 453 720 l 453 554 l 217 554 l 217 481 l 379 481 l 476 387 l 476 95 l 380 0 l 124 0 z"}}}
